<svg viewBox="0 0 200 250" xmlns="http://www.w3.org/2000/svg">
    <defs>
        <style>
            @keyframes flossMotion {
                0%, 100% { transform: translateY(0px); }
                50% { transform: translateY(15px); }
            }
            .floss-hand { animation: flossMotion 1.5s infinite ease-in-out; }
        </style>
    </defs>
    
    <!-- Hijab (dark navy) -->
    <ellipse cx="100" cy="40" rx="50" ry="45" fill="#1a1a3e"/>
    <path d="M 50 45 Q 40 80 45 120 L 155 120 Q 160 80 150 45 Q 125 20 100 20 Q 75 20 50 45" fill="#1a1a3e"/>
    
    <!-- Face (peach skin tone) -->
    <circle cx="100" cy="70" r="45" fill="#f4b89d"/>
    
    <!-- Cheeks blush -->
    <circle cx="75" cy="85" r="8" fill="#ff9999" opacity="0.6"/>
    <circle cx="125" cy="85" r="8" fill="#ff9999" opacity="0.6"/>
    
    <!-- Eyes -->
    <circle cx="85" cy="65" r="6" fill="#8b4513"/>
    <circle cx="115" cy="65" r="6" fill="#8b4513"/>
    <!-- Eye shine -->
    <circle cx="87" cy="63" r="2" fill="#ffffff"/>
    <circle cx="117" cy="63" r="2" fill="#ffffff"/>
    
    <!-- Eyebrows -->
    <path d="M 78 55 Q 85 50 92 55" stroke="#333" stroke-width="1.5" fill="none" stroke-linecap="round"/>
    <path d="M 108 55 Q 115 50 122 55" stroke="#333" stroke-width="1.5" fill="none" stroke-linecap="round"/>
    
    <!-- Nose -->
    <path d="M 100 65 L 100 80" stroke="#d4a580" stroke-width="1.5" fill="none"/>
    
    <!-- Smile (focused expression) -->
    <path d="M 85 90 Q 100 97 115 90" stroke="#ff6b9d" stroke-width="2" fill="none" stroke-linecap="round"/>
    
    <!-- Upper lip -->
    <path d="M 85 90 Q 100 93 115 90" stroke="#ff9999" stroke-width="1.5" fill="none" stroke-linecap="round" opacity="0.8"/>
    
    <!-- Neck -->
    <rect x="88" y="110" width="24" height="15" fill="#f4b89d"/>
    
    <!-- Body - Business casual shirt (white) -->
    <rect x="60" y="125" width="80" height="70" fill="#ffffff" rx="8"/>
    
    <!-- Dark blazer/jacket -->
    <path d="M 60 125 L 50 130 L 50 190 Q 50 200 60 200 L 140 200 Q 150 200 150 190 L 150 130 L 140 125 Z" fill="#2a2a4e" opacity="0.9"/>
    
    <!-- Button details on jacket -->
    <circle cx="100" cy="145" r="2" fill="#c0c0c0"/>
    <circle cx="100" cy="165" r="2" fill="#c0c0c0"/>
    
    <!-- Right arm (holding floss) -->
    <g class="floss-hand">
        <rect x="110" y="130" width="20" height="50" fill="#f4b89d" rx="10"/>
        <circle cx="120" cy="185" r="10" fill="#f4b89d"/>
    </g>
    
    <!-- Left arm (holding floss) -->
    <g class="floss-hand" style="animation-delay: 0.2s;">
        <rect x="70" y="130" width="20" height="50" fill="#f4b89d" rx="10"/>
        <circle cx="80" cy="185" r="10" fill="#f4b89d"/>
    </g>
    
    <!-- Floss string moving -->
    <g class="floss-hand">
        <line x1="75" y1="100" x2="125" y2="100" stroke="#4adecc" stroke-width="2" opacity="0.8"/>
        <!-- Floss fibers -->
        <line x1="80" y1="95" x2="80" y2="105" stroke="#4adecc" stroke-width="1" opacity="0.6"/>
        <line x1="90" y1="95" x2="90" y2="105" stroke="#4adecc" stroke-width="1" opacity="0.6"/>
        <line x1="100" y1="95" x2="100" y2="105" stroke="#4adecc" stroke-width="1" opacity="0.6"/>
        <line x1="110" y1="95" x2="110" y2="105" stroke="#4adecc" stroke-width="1" opacity="0.6"/>
        <line x1="120" y1="95" x2="120" y2="105" stroke="#4adecc" stroke-width="1" opacity="0.6"/>
    </g>
    
    <!-- Teeth visualization -->
    <g>
        <!-- Upper teeth -->
        <rect x="85" y="88" width="4" height="5" fill="#ffffff" stroke="#ccc" stroke-width="0.5"/>
        <rect x="91" y="88" width="4" height="5" fill="#ffffff" stroke="#ccc" stroke-width="0.5"/>
        <rect x="97" y="88" width="4" height="5" fill="#ffffff" stroke="#ccc" stroke-width="0.5"/>
        <rect x="103" y="88" width="4" height="5" fill="#ffffff" stroke="#ccc" stroke-width="0.5"/>
        <rect x="109" y="88" width="4" height="5" fill="#ffffff" stroke="#ccc" stroke-width="0.5"/>
        <rect x="115" y="88" width="4" height="5" fill="#ffffff" stroke="#ccc" stroke-width="0.5"/>
    </g>
    
    <!-- Legs -->
    <rect x="80" y="200" width="16" height="40" fill="#1a1a3e"/>
    <rect x="104" y="200" width="16" height="40" fill="#1a1a3e"/>
    
    <!-- Shoes -->
    <ellipse cx="88" cy="245" rx="12" ry="8" fill="#333333"/>
    <ellipse cx="112" cy="245" rx="12" ry="8" fill="#333333"/>
</svg>